<?xml version="1.0" standalone="no"?>
<!DOCTYPE svg PUBLIC "-//W3C//DTD SVG 20010904//EN"
 "http://www.w3.org/TR/2001/REC-SVG-20010904/DTD/svg10.dtd">
<svg version="1.0" xmlns="http://www.w3.org/2000/svg"
 width="1125.000000pt" height="1125.000000pt" viewBox="0 0 1125.000000 1125.000000"
 preserveAspectRatio="xMidYMid meet">
<metadata>
Created by potrace 1.14, written by Peter Selinger 2001-2017
</metadata>
<g transform="translate(0.000000,1125.000000) scale(0.100000,-0.100000)"
fill="#000000" stroke="none">
<path d="M0 5625 l0 -5625 5625 0 5625 0 0 5625 0 5625 -5625 0 -5625 0 0
-5625z m3975 -741 c196 -30 410 -119 584 -242 92 -65 251 -212 251 -231 0 -9
-64 -98 -137 -190 -1 -2 -40 32 -86 76 -269 258 -622 377 -987 333 -436 -54
-701 -328 -701 -725 0 -197 56 -344 184 -481 99 -106 206 -173 565 -353 721
-361 779 -393 919 -506 251 -202 373 -463 375 -808 1 -144 -5 -201 -37 -322
-150 -580 -750 -905 -1455 -788 -251 41 -478 138 -690 294 -85 63 -310 280
-310 299 0 10 148 200 155 200 2 0 55 -51 117 -112 216 -215 434 -339 708
-405 146 -34 366 -42 511 -18 427 70 696 330 738 711 13 124 1 263 -33 370
-52 162 -161 298 -326 406 -47 31 -305 167 -575 303 -547 276 -572 291 -701
386 -197 147 -325 334 -381 556 -26 102 -25 391 1 493 70 274 243 498 489 630
240 130 513 171 822 124z m6594 -95 l82 -81 -78 -82 c-44 -44 -331 -346 -638
-671 -308 -324 -607 -639 -665 -700 -330 -345 -466 -489 -472 -499 -7 -12 211
-220 1692 -1625 340 -324 380 -363 380 -376 0 -6 -37 -28 -82 -48 -117 -51
-158 -63 -166 -52 -8 11 -109 107 -397 380 -104 99 -239 227 -300 285 -125
119 -284 270 -915 869 l-445 423 -3 -956 -2 -956 -130 0 -129 0 -1 2018 c0
1109 3 2038 6 2065 l7 47 123 0 124 0 0 -970 c0 -533 3 -969 8 -969 4 1 54 52
112 113 112 118 347 366 1223 1289 316 332 556 577 566 577 9 0 54 -37 100
-81z m-3004 -1519 l0 -1565 -23 -130 c-54 -297 -147 -499 -306 -663 -160 -166
-358 -253 -641 -283 -288 -30 -543 37 -780 206 -125 89 -299 299 -360 434
l-19 44 89 84 c76 70 92 80 100 67 194 -314 364 -466 610 -544 97 -31 286 -38
413 -16 186 32 346 119 445 241 103 128 181 345 206 573 7 70 11 545 11 1487
l0 1385 -790 0 -790 0 0 119 c0 86 3 121 13 124 6 3 419 5 917 4 l905 -2 0
-1565z"/>
</g>
</svg>
