<?xml version="1.0" standalone="no"?>
<!DOCTYPE svg PUBLIC "-//W3C//DTD SVG 20010904//EN"
 "http://www.w3.org/TR/2001/REC-SVG-20010904/DTD/svg10.dtd">
<svg version="1.0" xmlns="http://www.w3.org/2000/svg"
 width="394.000000pt" height="394.000000pt" viewBox="0 0 394.000000 394.000000"
 preserveAspectRatio="xMidYMid meet">
<metadata>
Created by potrace 1.14, written by Peter Selinger 2001-2017
</metadata>
<g transform="translate(0.000000,394.000000) scale(0.100000,-0.100000)"
fill="#000000" stroke="none">
<path d="M666 2719 l-86 -140 54 -92 c30 -51 69 -115 88 -142 l33 -50 165 -3
c91 -1 170 1 176 5 21 16 176 274 171 286 -3 6 -41 71 -85 142 l-79 130 -175
2 -176 2 -86 -140z"/>
<path d="M208 2552 c-22 -3 -40 -25 -113 -142 l-86 -140 77 -127 c43 -71 82
-134 89 -141 8 -9 59 -13 182 -15 l171 -3 86 138 c47 76 86 141 86 145 0 4
-37 69 -83 145 l-82 137 -120 1 c-66 1 -133 2 -150 3 -16 1 -42 1 -57 -1z"/>
<path d="M1346 2550 c-38 -5 -41 -9 -123 -140 -45 -74 -83 -137 -83 -140 0 -3
24 -45 54 -93 l54 -89 -24 -25 c-13 -14 -25 -31 -25 -37 -9 -84 -6 -134 11
-166 l18 -35 -48 -78 -48 -78 56 -92 c31 -51 63 -103 70 -117 38 -74 31 -71
221 -74 l172 -2 60 95 59 95 0 -87 c0 -54 4 -87 11 -87 6 0 9 35 8 98 -1 78 2
105 17 133 10 19 17 37 16 42 -1 4 3 7 8 7 6 0 10 7 10 15 0 18 -17 20 -22 3
-2 -6 -17 10 -32 36 -26 45 -27 48 -11 66 17 18 15 22 -34 84 -28 35 -51 66
-51 68 0 2 22 33 49 68 48 62 49 64 30 78 -17 12 -22 11 -40 -10 -11 -13 8 23
42 79 l61 102 -83 137 c-46 75 -88 138 -94 140 -17 6 -268 9 -309 4z m-36
-560 c0 -3 22 -4 50 -3 27 1 50 -3 50 -8 0 -5 -38 -9 -85 -9 -92 0 -97 3 -73
56 l12 26 23 -28 c13 -16 23 -31 23 -34z m291 -9 c4 0 9 -8 13 -16 4 -13 -8
-15 -74 -15 -71 0 -80 2 -80 18 0 17 8 19 68 17 37 -1 70 -3 73 -4z m-327 -82
c-12 -25 -18 -29 -25 -18 -17 28 -10 49 16 49 25 0 25 0 9 -31z"/>
<path d="M754 2008 c1 -213 1 -213 24 -216 21 -3 22 -1 22 93 l0 96 117 -3
116 -3 1 -90 c1 -85 2 -90 24 -93 l22 -3 0 216 0 216 -22 -3 c-22 -3 -23 -8
-24 -91 -1 -48 -4 -90 -7 -93 -3 -3 -54 -6 -114 -7 l-108 -1 -3 97 c-3 94 -3
97 -26 97 l-23 0 1 -212z"/>
<path d="M1922 2102 c-26 -4 -37 -24 -28 -47 4 -12 10 -14 25 -5 11 5 38 11
60 12 49 2 81 -23 81 -63 0 -27 0 -27 -58 -22 -91 8 -142 -26 -142 -95 0 -79
118 -118 217 -70 28 13 28 14 29 113 1 67 -3 110 -12 131 -22 46 -75 61 -172
46z m126 -170 c7 -2 12 -21 12 -42 0 -33 -4 -39 -27 -47 -37 -13 -88 -10 -107
6 -23 19 -20 57 7 76 20 15 81 18 115 7z"/>
<path d="M2275 2103 c-57 -14 -88 -79 -82 -172 7 -113 65 -153 185 -127 26 6
32 5 32 -9 0 -52 -53 -87 -114 -73 -22 5 -47 14 -54 21 -11 9 -17 7 -28 -7
-16 -23 -11 -34 24 -48 48 -19 117 -21 151 -4 59 31 66 53 67 229 l2 159 -42
19 c-39 18 -97 23 -141 12z m116 -53 c17 -9 19 -22 19 -99 l0 -89 -30 -12
c-36 -15 -97 -7 -119 15 -9 9 -17 39 -19 77 -3 53 -1 67 18 91 18 22 29 27 66
27 25 0 54 -5 65 -10z"/>
<path d="M2630 2099 c-56 -23 -85 -83 -77 -167 5 -69 26 -104 72 -126 45 -22
93 -20 133 4 41 25 62 73 62 140 0 28 -6 66 -14 85 -26 62 -107 91 -176 64z
m123 -71 c28 -37 28 -119 0 -156 -29 -39 -93 -43 -128 -8 -21 21 -25 34 -25
84 0 83 25 114 88 110 35 -2 49 -9 65 -30z"/>
<path d="M2959 2091 l-34 -16 0 -140 c0 -138 0 -140 23 -143 22 -3 22 -2 22
122 0 143 2 146 84 146 36 0 48 -5 65 -26 18 -23 21 -41 21 -136 0 -108 0
-109 23 -106 21 3 22 8 25 102 3 125 -9 171 -51 197 -39 24 -127 24 -178 0z"/>
<path d="M189 1952 c-14 -4 -179 -262 -179 -281 0 -7 151 -263 165 -279 2 -2
82 -4 179 -5 142 -2 177 0 181 11 3 8 40 69 82 136 42 66 76 126 76 132 0 6
-37 72 -82 147 l-82 137 -97 1 c-53 0 -127 1 -163 2 -36 1 -72 1 -80 -1z"/>
<path d="M2470 1570 c0 -98 4 -170 9 -170 6 0 10 71 10 170 -1 97 -5 170 -10
170 -5 0 -9 -73 -9 -170z"/>
<path d="M2753 1720 c-18 -11 -33 -23 -34 -27 0 -5 -2 -17 -4 -28 -10 -51 26
-81 116 -97 68 -12 109 -39 109 -73 0 -37 -10 -55 -41 -70 -66 -35 -153 -4
-165 60 -6 36 -24 49 -24 18 0 -32 40 -84 76 -99 82 -34 185 24 170 96 -11 53
-39 72 -130 89 -66 12 -96 33 -96 67 0 30 36 64 69 65 79 4 118 -16 128 -62 4
-20 9 -27 16 -20 7 7 6 20 -2 40 -24 57 -125 80 -188 41z"/>
<path d="M2990 1570 c0 -102 4 -170 10 -170 5 0 9 40 9 91 0 86 1 93 27 120
32 34 66 37 94 9 20 -20 25 -63 21 -177 -1 -24 3 -43 9 -43 6 0 10 38 10 99 0
90 -2 103 -23 127 -30 34 -79 35 -113 3 l-24 -22 0 66 c0 38 -4 67 -10 67 -6
0 -10 -63 -10 -170z"/>
<path d="M3430 1570 c0 -98 4 -170 9 -170 6 0 10 72 10 170 0 103 -3 170 -9
170 -6 0 -10 -67 -10 -170z"/>
<path d="M3503 1684 c3 -20 0 -28 -14 -31 -10 -3 -16 -9 -13 -14 3 -5 10 -7
15 -4 5 4 9 -4 10 -17 0 -13 1 -62 2 -110 2 -53 7 -92 15 -100 15 -15 49 -20
57 -8 3 6 -5 10 -18 10 -33 0 -37 14 -37 130 l0 99 24 -5 c14 -2 28 0 31 6 4
6 -6 10 -24 10 -28 0 -31 3 -31 30 0 17 -5 30 -11 30 -7 0 -9 -11 -6 -26z"/>
<path d="M1950 1652 c-8 -2 -25 -13 -37 -24 l-22 -20 6 21 c3 12 1 21 -6 21
-7 0 -11 -40 -11 -125 0 -70 4 -125 9 -125 5 0 9 33 8 73 -1 120 21 167 80
167 41 0 55 -39 55 -145 -1 -54 3 -95 8 -95 6 0 10 42 10 95 0 88 2 98 25 120
27 28 62 32 91 11 16 -12 19 -29 22 -120 2 -58 8 -106 12 -106 5 0 8 47 7 105
-2 91 -5 107 -22 125 -12 11 -31 22 -44 25 -26 5 -76 -17 -84 -37 -4 -9 -11
-6 -24 9 -18 23 -56 34 -83 25z"/>
<path d="M2301 1650 c-41 -9 -66 -54 -68 -120 -3 -99 50 -152 127 -126 18 6
36 18 38 26 4 11 0 11 -21 -3 -69 -45 -127 0 -127 98 0 71 30 114 80 114 55 0
83 -47 79 -133 -3 -83 -1 -106 10 -106 5 0 9 56 9 125 0 69 -4 125 -9 125 -5
0 -9 -9 -9 -20 0 -21 0 -21 -21 -1 -24 22 -54 29 -88 21z"/>
<path d="M3275 1652 c-11 -2 -32 -15 -47 -29 -51 -49 -47 -174 8 -209 38 -25
101 -22 129 7 26 27 42 69 26 69 -6 0 -11 -7 -11 -15 0 -9 -11 -27 -25 -40
-46 -46 -125 -24 -141 40 -11 45 -3 50 90 49 48 -1 89 3 92 7 8 13 -14 85 -30
98 -19 16 -67 28 -91 23z m59 -23 c21 -10 46 -53 46 -80 0 -5 -38 -9 -85 -9
-79 0 -85 1 -85 21 0 26 52 79 79 79 11 0 31 -5 45 -11z"/>
<path d="M3660 1652 c-80 -26 -107 -164 -44 -227 52 -52 155 -25 169 43 6 32
-8 26 -25 -11 -30 -65 -128 -59 -150 9 -19 55 -13 59 86 59 l89 0 -3 33 c-3
39 -27 79 -52 87 -32 10 -54 12 -70 7z m56 -18 c22 -6 54 -52 54 -78 0 -13
-14 -16 -86 -16 l-86 0 6 28 c8 31 49 72 74 72 9 0 26 -3 38 -6z"/>
<path d="M716 1611 c-118 -192 -147 -242 -144 -253 2 -7 39 -73 83 -145 l80
-133 175 0 175 0 87 140 88 141 -86 139 c-47 77 -91 140 -97 141 -7 1 -86 2
-176 3 l-163 2 -22 -35z"/>
<path d="M1820 1525 c0 -74 4 -125 10 -125 6 0 9 51 9 125 0 73 -4 125 -9 125
-6 0 -10 -52 -10 -125z"/>
<path d="M3820 1528 c0 -73 4 -128 9 -128 5 0 9 41 9 91 -1 83 1 92 23 115 13
13 37 25 52 26 15 1 27 6 27 10 0 14 -45 9 -68 -8 -22 -15 -24 -15 -37 2 -13
17 -14 3 -15 -108z"/>
</g>
</svg>
