<?xml version="1.0" standalone="no"?>
<!DOCTYPE svg PUBLIC "-//W3C//DTD SVG 20010904//EN"
 "http://www.w3.org/TR/2001/REC-SVG-20010904/DTD/svg10.dtd">
<svg version="1.0" xmlns="http://www.w3.org/2000/svg"
 width="546.000000pt" height="546.000000pt" viewBox="0 0 546.000000 546.000000"
 preserveAspectRatio="xMidYMid meet">
<metadata>
Created by potrace 1.14, written by Peter Selinger 2001-2017
</metadata>
<g transform="translate(0.000000,546.000000) scale(0.100000,-0.100000)"
fill="#000000" stroke="none">
<path d="M2779 5056 c-2 -2 -35 -7 -74 -10 -38 -4 -81 -9 -95 -11 -14 -2 -50
-6 -80 -9 -30 -3 -71 -8 -90 -10 -50 -6 -150 -18 -180 -21 -14 -1 -50 -5 -80
-9 -30 -4 -77 -9 -105 -12 -27 -3 -61 -7 -75 -9 -14 -2 -52 -6 -85 -10 -33 -3
-132 -15 -220 -25 -88 -10 -180 -21 -205 -24 -25 -3 -126 -14 -225 -25 -99
-12 -202 -23 -230 -26 -27 -3 -68 -8 -90 -11 -22 -3 -51 -7 -65 -9 -14 -2 -52
-6 -85 -10 -33 -3 -73 -8 -90 -10 -16 -2 -59 -7 -95 -10 -36 -4 -76 -9 -90
-11 -14 -1 -54 -6 -90 -9 -36 -4 -68 -10 -71 -14 -3 -3 -13 -35 -22 -71 -22
-89 -17 -254 11 -331 70 -195 146 -254 396 -304 181 -37 256 -91 328 -236 32
-65 201 -455 245 -564 8 -22 19 -49 24 -60 15 -38 40 -118 36 -121 -1 -2 -26
-5 -54 -8 -50 -4 -53 -3 -80 32 -52 68 -156 163 -217 197 -97 54 -172 75 -286
80 -310 13 -574 -220 -636 -560 -19 -105 -24 -364 -10 -490 16 -140 76 -406
111 -490 66 -159 148 -278 285 -415 81 -82 155 -138 240 -182 158 -83 269
-108 455 -103 124 4 165 8 250 25 28 6 61 12 74 15 109 21 324 115 404 177
255 197 370 386 422 688 3 19 10 53 15 75 5 22 12 63 16 90 3 28 8 52 9 55 2
3 6 34 10 69 4 34 8 71 10 82 2 11 7 73 10 139 10 177 11 190 17 196 3 3 35 7
70 10 34 2 77 6 95 8 18 2 32 1 31 -3 0 -3 0 -46 1 -94 l1 -88 98 7 c53 3 106
8 117 9 11 1 33 3 48 4 22 1 27 5 23 19 -2 9 -7 80 -11 157 -3 77 -8 181 -11
230 -9 151 -13 237 -13 293 l-1 54 -82 -7 c-46 -4 -96 -8 -113 -10 -16 -1 -45
-3 -64 -4 l-33 -1 7 -110 c5 -88 4 -110 -7 -110 -7 0 -43 -3 -80 -6 l-68 -6
-2 73 c-3 167 -8 557 -8 741 -1 255 -4 248 170 353 101 61 196 131 235 172 31
35 46 93 48 189 1 73 -10 221 -18 233 -2 4 -6 22 -9 43 -3 20 -15 61 -27 92
-19 51 -28 63 -40 52z m-49 -187 c12 -58 23 -158 23 -199 -1 -124 0 -121 -52
-169 -27 -26 -74 -62 -106 -81 -217 -132 -261 -173 -285 -260 -11 -41 -15
-211 -11 -415 1 -44 2 -156 3 -250 4 -467 2 -650 -5 -750 -27 -384 -29 -403
-78 -651 -16 -84 -38 -176 -48 -206 -118 -342 -452 -577 -876 -616 -189 -17
-329 0 -454 55 -218 96 -457 362 -535 594 -15 44 -59 232 -76 319 -16 82 -23
203 -22 346 2 260 54 419 177 539 159 156 418 184 600 63 129 -85 258 -269
280 -399 3 -19 10 -50 15 -69 29 -110 30 -411 1 -530 -18 -76 -73 -199 -106
-237 -62 -73 -225 -109 -304 -69 -78 41 -171 155 -210 260 -49 132 -78 469
-52 606 12 60 82 211 112 241 16 16 23 17 40 8 29 -15 99 -79 99 -91 0 -5 -11
-20 -25 -34 -79 -79 -105 -186 -101 -414 3 -190 14 -232 89 -349 75 -116 140
-148 221 -112 87 38 126 141 127 336 0 89 -23 262 -47 343 -46 162 -198 382
-296 431 -57 28 -174 24 -241 -8 -124 -60 -217 -214 -245 -404 -35 -245 50
-682 175 -897 44 -75 149 -184 213 -222 164 -95 368 -96 565 -3 191 91 333
269 391 490 25 96 26 318 1 431 -16 74 -206 693 -227 739 -5 11 -19 45 -31 75
-27 71 -65 161 -96 230 -14 30 -41 93 -60 138 -44 107 -115 253 -144 294 -61
90 -135 147 -230 177 -63 21 -83 26 -144 36 -63 11 -142 38 -182 61 -74 43
-122 149 -128 284 -7 131 -4 135 85 144 25 3 65 7 90 10 25 3 65 8 90 11 25 2
65 7 90 10 25 3 68 7 95 11 86 9 118 13 200 23 44 6 108 13 142 17 35 3 75 8
90 10 16 2 56 6 90 9 34 3 70 7 80 9 10 2 47 7 83 11 36 3 76 8 90 10 25 4 80
10 183 20 28 3 68 8 87 10 49 7 96 12 160 19 30 4 71 9 90 11 19 2 60 7 90 10
30 3 89 10 130 15 41 6 100 12 130 16 30 3 82 9 115 13 33 4 61 6 62 6 2 -1 8
-26 13 -56z m25 -1660 c2 -13 7 -80 10 -149 3 -69 8 -173 11 -231 4 -86 3
-107 -9 -112 -30 -11 -33 -2 -36 131 l-1 53 -77 -6 c-43 -3 -110 -7 -149 -10
l-71 -4 5 52 c2 29 5 53 6 53 0 1 28 5 61 8 33 4 80 10 105 13 25 3 59 7 75 8
30 2 30 2 27 56 -1 30 -5 77 -7 106 -5 48 -3 52 17 55 29 5 28 5 33 -23z
m-1320 -300 c9 -28 15 -53 11 -56 -3 -3 -18 -7 -34 -9 -26 -3 -30 1 -48 49
-10 28 -20 55 -22 59 -2 4 14 8 36 8 40 0 41 -1 57 -51z m-473 -151 c56 -100
88 -275 84 -453 -3 -122 -20 -187 -53 -199 -17 -7 -66 59 -107 144 -30 63 -31
70 -33 212 -2 162 13 251 50 305 12 18 25 33 29 33 3 0 17 -19 30 -42z m-475
10 c-3 -8 -6 -5 -6 6 -1 11 2 17 5 13 3 -3 4 -12 1 -19z m-6 -63 c-3 -22 -6
-62 -5 -90 12 -400 67 -587 218 -741 95 -96 162 -129 261 -127 39 1 77 4 85 6
119 31 163 52 213 103 71 73 137 236 161 392 14 93 13 304 -2 410 -5 34 -6 64
-3 66 3 2 24 3 46 2 l40 -1 28 -85 c47 -144 62 -234 61 -370 0 -142 -13 -201
-72 -320 -49 -100 -159 -211 -255 -258 -324 -158 -589 -28 -715 353 -17 50
-33 108 -37 130 -4 22 -9 49 -12 60 -2 11 -6 36 -9 55 -3 19 -10 61 -15 94
-21 121 -18 286 7 355 9 26 12 6 5 -34z"/>
<path d="M4895 3957 c-22 -22 -130 -126 -239 -231 -110 -105 -221 -211 -246
-236 -80 -78 -443 -426 -480 -460 -27 -25 -387 -371 -446 -427 -20 -20 -26
-15 -20 15 4 15 8 36 10 48 2 11 41 203 86 425 45 222 84 413 86 424 2 11 11
55 20 98 8 42 18 89 20 104 3 14 11 55 18 89 10 47 10 64 2 65 -15 2 -101 6
-352 14 l-212 7 -6 -49 c-3 -26 -8 -73 -11 -103 -3 -30 -9 -91 -15 -135 -5
-44 -12 -109 -15 -145 -3 -36 -8 -81 -10 -100 -2 -19 -9 -82 -15 -140 -6 -58
-13 -121 -15 -140 -2 -19 -7 -64 -10 -100 -3 -36 -8 -81 -10 -100 -2 -19 -7
-64 -10 -100 -4 -36 -8 -76 -10 -90 -3 -24 -10 -88 -20 -190 -10 -103 -17
-166 -20 -190 -2 -14 -7 -58 -10 -98 -4 -41 -8 -81 -10 -90 -1 -9 -6 -53 -9
-97 -4 -44 -9 -91 -11 -105 -2 -14 -7 -54 -10 -90 -4 -36 -8 -78 -10 -95 -2
-16 -7 -57 -10 -90 -6 -66 -13 -136 -20 -205 -3 -25 -8 -67 -10 -95 -4 -46 -9
-91 -20 -185 -2 -19 -7 -64 -10 -100 -9 -94 -15 -150 -20 -190 -2 -19 -7 -64
-10 -100 -3 -36 -8 -76 -10 -90 -6 -33 -17 -164 -19 -220 l-1 -45 40 -6 c58
-9 390 -66 458 -79 33 -6 60 -10 62 -8 2 2 6 315 8 696 2 381 6 695 9 698 3 2
27 -8 54 -24 388 -230 1847 -1092 1850 -1092 1 0 3 123 4 273 l0 272 -662 373
c-365 205 -674 379 -688 387 -14 8 -77 43 -140 78 -264 148 -241 124 -178 179
80 70 124 108 274 243 28 25 68 61 174 155 47 41 87 77 90 80 3 3 66 59 140
125 74 66 137 122 140 125 3 3 43 39 90 80 47 41 87 77 90 80 3 3 43 39 90 80
47 41 103 92 125 112 22 20 51 46 65 58 14 12 54 47 89 78 35 31 77 68 92 81
16 13 29 30 29 38 0 12 -26 112 -107 406 -14 53 -31 96 -37 96 -6 -1 -29 -20
-51 -42z m15 -224 c0 -7 12 -57 27 -110 23 -85 25 -97 11 -107 -13 -10 -104
-89 -179 -157 -50 -46 -105 -95 -234 -209 -72 -63 -135 -119 -141 -125 -6 -5
-44 -39 -84 -75 -40 -36 -78 -70 -84 -75 -6 -6 -96 -86 -201 -179 -104 -93
-224 -199 -265 -236 -41 -37 -95 -84 -120 -106 -24 -21 -51 -46 -60 -54 -32
-30 -118 -106 -173 -154 -45 -39 -55 -52 -46 -62 6 -8 15 -14 19 -14 4 0 45
-22 91 -48 46 -27 109 -62 139 -79 30 -16 253 -142 495 -278 242 -136 460
-259 485 -273 25 -14 110 -62 190 -107 145 -82 191 -108 308 -172 45 -26 62
-41 63 -56 1 -62 -3 -242 -6 -245 -2 -2 -237 135 -522 303 -285 169 -531 315
-548 325 -16 9 -210 123 -429 253 -220 130 -401 235 -403 234 -2 -2 -6 -438
-12 -1385 l-1 -83 -32 5 c-18 3 -44 8 -58 11 -14 3 -52 10 -85 16 -33 5 -69
12 -80 14 -11 2 -31 4 -44 4 -23 1 -23 2 -17 73 4 40 8 87 10 103 2 17 7 64
11 105 4 41 9 82 10 90 2 8 6 49 9 90 4 41 11 111 16 155 5 44 12 107 15 140
3 33 8 76 10 95 2 19 7 64 10 100 6 63 11 109 20 180 2 19 7 64 10 100 3 36 8
83 10 105 3 22 7 65 10 95 5 58 13 132 20 190 3 19 7 60 10 90 3 30 7 75 10
100 3 25 7 68 10 95 19 192 24 238 30 285 2 19 7 62 10 95 3 33 7 78 10 100 2
22 7 67 10 100 3 33 7 76 10 95 2 19 7 62 10 95 3 33 8 76 10 95 2 19 7 64 10
100 3 36 8 76 10 90 2 14 9 79 15 145 6 66 13 128 16 138 5 17 17 18 162 12
85 -3 157 -7 159 -9 4 -4 -12 -103 -32 -196 -3 -14 -7 -34 -9 -45 -3 -16 -33
-158 -71 -345 -2 -8 -31 -153 -64 -321 -34 -168 -64 -317 -67 -330 -3 -13 -7
-35 -10 -49 -3 -13 -12 -56 -20 -95 -8 -38 -17 -86 -20 -105 l-6 -35 44 41
c24 23 59 57 79 75 20 19 123 118 230 220 107 103 214 205 239 229 25 23 131
126 237 227 105 101 209 201 230 220 21 20 124 118 228 218 360 346 328 318
342 299 7 -10 13 -24 13 -31z"/>
</g>
</svg>
