<?xml version="1.0" standalone="no"?>
<!DOCTYPE svg PUBLIC "-//W3C//DTD SVG 20010904//EN"
 "http://www.w3.org/TR/2001/REC-SVG-20010904/DTD/svg10.dtd">
<svg version="1.0" xmlns="http://www.w3.org/2000/svg"
 width="1125.000000pt" height="1125.000000pt" viewBox="0 0 1125.000000 1125.000000"
 preserveAspectRatio="xMidYMid meet">
<metadata>
Created by potrace 1.11, written by Peter Selinger 2001-2013
</metadata>
<g transform="translate(0.000000,1125.000000) scale(0.100000,-0.100000)"
fill="#000000" stroke="none">
<path d="M0 5625 l0 -5625 5625 0 5625 0 0 5625 0 5625 -5625 0 -5625 0 0
-5625z m3975 -741 c196 -30 410 -119 584 -242 91 -64 251 -212 251 -231 0 -6
-30 -50 -67 -98 -37 -49 -68 -90 -70 -92 -1 -2 -40 32 -86 76 -269 258 -622
377 -987 333 -436 -54 -701 -328 -701 -725 0 -197 56 -344 184 -481 99 -106
206 -173 565 -353 721 -361 779 -393 919 -506 251 -202 373 -463 375 -808 1
-144 -5 -201 -37 -322 -150 -580 -750 -905 -1455 -788 -251 41 -478 138 -690
294 -85 63 -310 280 -310 299 0 10 148 200 155 200 2 0 55 -51 117 -112 216
-215 434 -339 708 -405 146 -34 366 -42 511 -18 427 70 696 330 738 711 13
124 1 263 -33 370 -52 162 -161 298 -326 406 -47 31 -305 167 -575 303 -547
276 -572 291 -701 386 -197 147 -325 334 -381 556 -26 102 -25 391 1 493 70
274 243 498 489 630 240 130 513 171 822 124z m3590 -1614 l0 -1565 -23 -130
c-54 -297 -147 -499 -306 -663 -160 -166 -358 -253 -641 -283 -288 -30 -543
37 -780 206 -125 89 -299 299 -360 434 l-19 44 89 84 c76 70 92 80 100 67 194
-314 364 -466 610 -544 97 -31 286 -38 413 -16 186 32 346 119 445 241 103
128 181 345 206 573 7 70 11 545 11 1487 l0 1385 -790 0 -790 0 0 119 c0 86 3
121 13 124 6 3 419 5 917 4 l905 -2 0 -1565z m995 655 l0 -905 910 0 910 0 0
905 0 905 130 0 130 0 0 -2065 0 -2065 -130 0 -130 0 0 1033 0 1032 -907 -2
-908 -2 -3 -1031 -2 -1030 -130 0 -129 0 -1 2018 c0 1109 3 2038 6 2065 l7 47
123 0 124 0 0 -905z"/>
</g>
</svg>
