<?xml version="1.0" standalone="no"?>
<!DOCTYPE svg PUBLIC "-//W3C//DTD SVG 20010904//EN"
 "http://www.w3.org/TR/2001/REC-SVG-20010904/DTD/svg10.dtd">
<svg version="1.0" xmlns="http://www.w3.org/2000/svg"
 width="1125.000000pt" height="1125.000000pt" viewBox="0 0 1125.000000 1125.000000"
 preserveAspectRatio="xMidYMid meet">
<metadata>
Created by potrace 1.11, written by Peter Selinger 2001-2013
</metadata>
<g transform="translate(0.000000,1125.000000) scale(0.100000,-0.100000)"
fill="#000000" stroke="none">
<path d="M0 5630 l0 -5620 5625 0 5625 0 0 5620 0 5620 -5625 0 -5625 0 0
-5620z m7165 -734 c260 -58 482 -178 676 -364 55 -52 99 -99 99 -104 0 -10
-151 -186 -161 -187 -3 -1 -42 34 -85 77 -129 126 -266 215 -423 272 -215 79
-503 82 -771 10 -118 -32 -320 -138 -425 -223 -292 -237 -490 -618 -564 -1088
-40 -251 -50 -507 -31 -755 34 -429 144 -783 331 -1065 71 -107 261 -303 351
-362 220 -144 450 -211 723 -210 355 1 616 115 892 389 l111 111 81 -81 c45
-45 81 -87 81 -94 0 -20 -124 -153 -218 -235 -298 -258 -612 -367 -1022 -354
-188 6 -298 24 -445 72 -539 176 -937 651 -1105 1320 -58 233 -83 462 -83 770
0 265 18 453 63 657 175 791 656 1312 1327 1437 149 28 166 29 358 26 105 -2
197 -10 240 -19z m-4245 -1197 c0 -632 4 -1149 8 -1149 4 0 124 136 267 302
682 792 1613 1870 1666 1930 l60 68 159 -2 c88 -1 160 -5 160 -8 0 -4 -290
-345 -645 -759 -355 -413 -645 -757 -645 -763 0 -6 32 -67 72 -137 39 -69 119
-211 178 -316 59 -104 267 -473 462 -820 195 -346 444 -787 552 -978 108 -192
196 -353 196 -358 0 -6 -64 -8 -161 -7 l-162 3 -111 200 c-184 329 -562 1006
-679 1215 -60 107 -206 369 -325 583 -119 213 -220 386 -224 385 -4 -2 -192
-218 -418 -481 l-410 -478 0 -715 0 -715 -142 3 -143 3 -2 2057 c-2 1131 0
2064 3 2073 6 14 27 16 145 14 l139 -1 0 -1149z m6770 1132 c501 -64 797 -228
964 -532 147 -270 173 -730 60 -1067 -125 -376 -455 -629 -926 -711 -187 -33
-332 -41 -800 -41 l-448 0 0 -890 0 -890 -140 0 -140 0 0 2075 0 2076 668 -4
c442 -3 699 -8 762 -16z"/>
<path d="M8540 3666 l0 -936 444 0 c244 0 490 5 547 10 545 54 820 243 927
640 24 88 26 110 26 310 0 201 -2 222 -27 312 -91 341 -316 507 -775 574 -82
12 -229 17 -624 21 l-518 5 0 -936z"/>
</g>
</svg>
